<svg width="20" height="21" viewBox="0 0 20 21" fill="none" xmlns="http://www.w3.org/2000/svg">
<path d="M0 21V18H20V21H15H10H5H0ZM2 16V12.25L11.05 3.19999L14.8 6.94999L5.75 16H2ZM4 14H4.9L12 6.94999L11.05 5.99999L4 13.1V14ZM15.925 5.84999L12.175 2.09999L13.975 0.299993C14.1583 0.0999934 14.3917 0.00416007 14.675 0.0124934C14.9583 0.0208267 15.1917 0.11666 15.375 0.299993L17.725 2.64999C17.9083 2.83333 18 3.06249 18 3.33749C18 3.61249 17.9083 3.84999 17.725 4.04999L15.925 5.84999Z" fill="#C59B47"/>
</svg>
