<svg width="17" height="19" viewBox="0 0 17 19" fill="none" xmlns="http://www.w3.org/2000/svg">
<path d="M13.75 18.25C13.0208 18.25 12.401 17.9948 11.8906 17.4844C11.3802 16.974 11.125 16.3542 11.125 15.625C11.125 15.5229 11.1323 15.4172 11.1469 15.3078C11.1615 15.1984 11.1833 15.1 11.2125 15.0125L5.04375 11.425C4.79583 11.6438 4.51875 11.8151 4.2125 11.9391C3.90625 12.063 3.58542 12.125 3.25 12.125C2.52083 12.125 1.90104 11.8698 1.39062 11.3594C0.880208 10.849 0.625 10.2292 0.625 9.5C0.625 8.77083 0.880208 8.15104 1.39062 7.64062C1.90104 7.13021 2.52083 6.875 3.25 6.875C3.58542 6.875 3.90625 6.93698 4.2125 7.06094C4.51875 7.1849 4.79583 7.35625 5.04375 7.575L11.2125 3.9875C11.1833 3.9 11.1615 3.80156 11.1469 3.69219C11.1323 3.58281 11.125 3.47708 11.125 3.375C11.125 2.64583 11.3802 2.02604 11.8906 1.51562C12.401 1.00521 13.0208 0.75 13.75 0.75C14.4792 0.75 15.099 1.00521 15.6094 1.51562C16.1198 2.02604 16.375 2.64583 16.375 3.375C16.375 4.10417 16.1198 4.72396 15.6094 5.23438C15.099 5.74479 14.4792 6 13.75 6C13.4146 6 13.0938 5.93802 12.7875 5.81406C12.4813 5.6901 12.2042 5.51875 11.9563 5.3L5.7875 8.8875C5.81667 8.975 5.83854 9.07344 5.85313 9.18281C5.86771 9.29219 5.875 9.39792 5.875 9.5C5.875 9.60208 5.86771 9.70781 5.85313 9.81719C5.83854 9.92656 5.81667 10.025 5.7875 10.1125L11.9563 13.7C12.2042 13.4812 12.4813 13.3099 12.7875 13.1859C13.0938 13.062 13.4146 13 13.75 13C14.4792 13 15.099 13.2552 15.6094 13.7656C16.1198 14.276 16.375 14.8958 16.375 15.625C16.375 16.3542 16.1198 16.974 15.6094 17.4844C15.099 17.9948 14.4792 18.25 13.75 18.25ZM13.75 4.25C13.9979 4.25 14.2057 4.16615 14.3734 3.99844C14.5411 3.83073 14.625 3.62292 14.625 3.375C14.625 3.12708 14.5411 2.91927 14.3734 2.75156C14.2057 2.58385 13.9979 2.5 13.75 2.5C13.5021 2.5 13.2943 2.58385 13.1266 2.75156C12.9589 2.91927 12.875 3.12708 12.875 3.375C12.875 3.62292 12.9589 3.83073 13.1266 3.99844C13.2943 4.16615 13.5021 4.25 13.75 4.25ZM3.25 10.375C3.49792 10.375 3.70573 10.2911 3.87344 10.1234C4.04115 9.95573 4.125 9.74792 4.125 9.5C4.125 9.25208 4.04115 9.04427 3.87344 8.87656C3.70573 8.70885 3.49792 8.625 3.25 8.625C3.00208 8.625 2.79427 8.70885 2.62656 8.87656C2.45885 9.04427 2.375 9.25208 2.375 9.5C2.375 9.74792 2.45885 9.95573 2.62656 10.1234C2.79427 10.2911 3.00208 10.375 3.25 10.375ZM13.75 16.5C13.9979 16.5 14.2057 16.4161 14.3734 16.2484C14.5411 16.0807 14.625 15.8729 14.625 15.625C14.625 15.3771 14.5411 15.1693 14.3734 15.0016C14.2057 14.8339 13.9979 14.75 13.75 14.75C13.5021 14.75 13.2943 14.8339 13.1266 15.0016C12.9589 15.1693 12.875 15.3771 12.875 15.625C12.875 15.8729 12.9589 16.0807 13.1266 16.2484C13.2943 16.4161 13.5021 16.5 13.75 16.5Z" fill="#C59B47"/>
</svg>
