<svg width="21" height="20" viewBox="0 0 21 20" fill="none" xmlns="http://www.w3.org/2000/svg">
<path d="M10.8766 19.9H1.39359C0.789871 19.9 0.300781 19.4106 0.300781 18.8071V1.19279C0.300781 0.589154 0.789948 0.0999908 1.39359 0.0999908H19.008C19.6115 0.0999908 20.1008 0.589154 20.1008 1.19279V18.8071C20.1008 19.4107 19.6115 19.9 19.008 19.9H13.9625V12.2323H16.5362L16.9215 9.24412H13.9625V7.33633C13.9625 6.47117 14.2027 5.88159 15.4434 5.88159L17.0257 5.8809V3.20822C16.7521 3.1718 15.8128 3.09044 14.7199 3.09044C12.4385 3.09044 10.8766 4.48302 10.8766 7.04039V9.24412H8.29632V12.2323H10.8766V19.9Z" fill="white"/>
</svg>
