<svg width="21" height="13" viewBox="0 0 21 13" fill="none" xmlns="http://www.w3.org/2000/svg">
<path fill-rule="evenodd" clip-rule="evenodd" d="M9.98738 7.7449C9.00361 7.7449 6.58751 7.74802 6.58751 7.74802V5.35198H12.6271C13.0478 8.25119 11.7789 12.6 6.58751 12.6C3.11435 12.6 0.298828 9.89128 0.298828 6.55C0.298828 3.20866 3.11435 0.5 6.58751 0.5C8.21721 0.5 9.70208 1.09637 10.8193 2.07468C9.95355 2.86122 9.67601 3.16105 9.44019 3.41581C9.31752 3.54833 9.20614 3.66865 9.02913 3.83894C8.38289 3.32481 7.67838 2.95594 6.58751 2.95594C4.52426 2.95594 2.91392 4.56506 2.91392 6.55C2.91392 8.53494 4.52426 10.1441 6.58751 10.1441C8.62628 10.1441 9.45465 9.2982 9.98738 7.7449ZM17.92 3.37525V5.47178H20.0992V6.96931H17.92V9.12574H16.3634V6.96931H14.1219V5.47178H16.3634V3.37525H17.92Z" fill="white"/>
</svg>
