<svg width="21" height="20" viewBox="0 0 21 20" fill="none" xmlns="http://www.w3.org/2000/svg">
<path fill-rule="evenodd" clip-rule="evenodd" d="M10.4 0.0999908C7.71132 0.0999908 7.37418 0.111387 6.31824 0.159567C5.2645 0.207628 4.54484 0.374999 3.91512 0.619748C3.26411 0.87271 2.71201 1.21122 2.1616 1.76159C1.61123 2.312 1.27272 2.8641 1.01976 3.51511C0.775008 4.14483 0.607637 4.86449 0.559576 5.91823C0.511397 6.97417 0.5 7.31131 0.5 10C0.5 12.6887 0.511397 13.0258 0.559576 14.0817C0.607637 15.1355 0.775008 15.8552 1.01976 16.4849C1.27272 17.1359 1.61123 17.688 2.1616 18.2384C2.71201 18.7888 3.26411 19.1273 3.91512 19.3803C4.54484 19.625 5.2645 19.7924 6.31824 19.8404C7.37418 19.8886 7.71132 19.9 10.4 19.9C13.0887 19.9 13.4258 19.8886 14.4818 19.8404C15.5355 19.7924 16.2552 19.625 16.8849 19.3803C17.5359 19.1273 18.088 18.7888 18.6384 18.2384C19.1888 17.688 19.5273 17.1359 19.7803 16.4849C20.025 15.8552 20.1924 15.1355 20.2404 14.0817C20.2886 13.0258 20.3 12.6887 20.3 10C20.3 7.31131 20.2886 6.97417 20.2404 5.91823C20.1924 4.86449 20.025 4.14483 19.7803 3.51511C19.5273 2.8641 19.1888 2.312 18.6384 1.76159C18.088 1.21122 17.5359 0.87271 16.8849 0.619748C16.2552 0.374999 15.5355 0.207628 14.4818 0.159567C13.4258 0.111387 13.0887 0.0999908 10.4 0.0999908ZM10.3994 1.88376C13.0428 1.88376 13.356 1.89386 14.3999 1.94149C15.3651 1.98551 15.8893 2.14679 16.2382 2.28236C16.7003 2.46196 17.0301 2.67649 17.3765 3.02294C17.7229 3.36935 17.9374 3.69914 18.117 4.16125C18.2526 4.5101 18.4139 5.03429 18.4579 5.99953C18.5055 7.04345 18.5156 7.35658 18.5156 10C18.5156 12.6434 18.5055 12.9565 18.4579 14.0004C18.4139 14.9657 18.2526 15.4899 18.117 15.8387C17.9374 16.3008 17.7229 16.6306 17.3765 16.977C17.0301 17.3235 16.7003 17.538 16.2382 17.7176C15.8893 17.8532 15.3651 18.0145 14.3999 18.0585C13.3561 18.1061 13.043 18.1162 10.3994 18.1162C7.75582 18.1162 7.44277 18.1061 6.39897 18.0585C5.43373 18.0145 4.90953 17.8532 4.56069 17.7176C4.09858 17.538 3.76879 17.3235 3.42238 16.977C3.07596 16.6306 2.8614 16.3008 2.6818 15.8387C2.54623 15.4899 2.38495 14.9657 2.34093 14.0004C2.2933 12.9565 2.2832 12.6434 2.2832 10C2.2832 7.35658 2.2933 7.04345 2.34093 5.99953C2.38495 5.03429 2.54623 4.5101 2.6818 4.16125C2.8614 3.69914 3.07592 3.36935 3.42238 3.02294C3.76879 2.67649 4.09858 2.46196 4.56069 2.28236C4.90953 2.14679 5.43373 1.98551 6.39897 1.94149C7.44289 1.89386 7.75601 1.88376 10.3994 1.88376ZM5.3168 10C5.3168 7.19229 7.59286 4.91622 10.4006 4.91622C13.2083 4.91622 15.4844 7.19229 15.4844 10C15.4844 12.8077 13.2083 15.0838 10.4006 15.0838C7.59286 15.0838 5.3168 12.8077 5.3168 10ZM10.4 13.3C8.57745 13.3 7.1 11.8225 7.1 10C7.1 8.17744 8.57745 6.69999 10.4 6.69999C12.2225 6.69999 13.7 8.17744 13.7 10C13.7 11.8225 12.2225 13.3 10.4 13.3ZM15.6851 5.90334C16.3412 5.90334 16.8731 5.37148 16.8731 4.71536C16.8731 4.05924 16.3412 3.52734 15.6851 3.52734C15.029 3.52734 14.4971 4.05924 14.4971 4.71536C14.4971 5.37148 15.029 5.90334 15.6851 5.90334Z" fill="white"/>
</svg>
