<svg width="21" height="18" viewBox="0 0 21 18" fill="none" xmlns="http://www.w3.org/2000/svg">
<path fill-rule="evenodd" clip-rule="evenodd" d="M3.22908 4.34838H3.20114C1.80415 4.34838 0.898438 3.43441 0.898438 2.27587C0.898438 1.0948 1.83093 0.199982 3.25586 0.199982C4.67962 0.199982 5.55507 1.09255 5.58301 2.27249C5.58301 3.43103 4.67962 4.34838 3.22908 4.34838ZM20.6974 17.8H16.3214V11.6129C16.3214 9.99342 15.6368 8.88785 14.1316 8.88785C12.9802 8.88785 12.34 9.63391 12.0419 10.3529C11.9435 10.5802 11.9453 10.886 11.9471 11.2013C11.9474 11.2441 11.9476 11.287 11.9476 11.33V17.8H7.6123C7.6123 17.8 7.66818 6.84013 7.6123 5.84389H11.9476V7.7203C12.2037 6.89986 13.5891 5.72894 15.7998 5.72894C18.5426 5.72894 20.6974 7.4487 20.6974 11.1519V17.8ZM5.25606 5.84388H1.39687V17.8H5.25606V5.84388Z" fill="white"/>
</svg>
