<svg width="20" height="20" viewBox="0 0 20 20" fill="none" xmlns="http://www.w3.org/2000/svg">
<path d="M10.0021 0.0999908C4.53494 0.0999908 0.101562 4.5322 0.101562 10.0006C0.101562 14.0532 2.53945 17.5366 6.02864 19.0676C6.0007 18.3772 6.02398 17.5459 6.19978 16.7938C6.39071 15.9905 7.47344 11.4 7.47344 11.4C7.47344 11.4 7.15794 10.7678 7.15794 9.83292C7.15794 8.366 8.00899 7.27046 9.06727 7.27046C9.96722 7.27046 10.4026 7.94688 10.4026 8.75718C10.4026 9.66178 9.82518 11.0158 9.5283 12.2696C9.28032 13.3209 10.0545 14.1767 11.0907 14.1767C12.9663 14.1767 14.2295 11.7679 14.2295 8.91319C14.2295 6.74423 12.7683 5.12014 10.1104 5.12014C7.10788 5.12014 5.23697 7.35894 5.23697 9.8597C5.23697 10.7236 5.49077 11.3313 5.88893 11.8016C6.07288 12.0193 6.09733 12.1055 6.03097 12.3546C5.9844 12.5351 5.87496 12.9752 5.82956 13.1486C5.7632 13.3989 5.56062 13.4898 5.33476 13.3966C3.9505 12.832 3.30668 11.3173 3.30668 9.61405C3.30668 6.80244 5.67821 3.42851 10.3817 3.42851C14.1619 3.42851 16.6499 6.16561 16.6499 9.10062C16.6499 12.9845 14.4914 15.8857 11.3072 15.8857C10.2396 15.8857 9.23375 15.3083 8.88914 14.6528C8.88914 14.6528 8.31402 16.9335 8.19294 17.3736C7.98338 18.1362 7.5724 18.8999 7.19636 19.4937C8.08699 19.7568 9.02769 19.9 10.0021 19.9C15.4694 19.9 19.9016 15.4678 19.9016 10.0006C19.9016 4.5322 15.4694 0.0999908 10.0021 0.0999908Z" fill="white"/>
</svg>
