<svg width="21" height="20" viewBox="0 0 21 20" fill="none" xmlns="http://www.w3.org/2000/svg">
<path fill-rule="evenodd" clip-rule="evenodd" d="M20.6984 19.9H16.9273C16.9273 11.0614 9.73712 3.87118 0.898636 3.87118V0.0999908C11.8161 0.0999908 20.6984 8.98241 20.6984 19.9ZM0.898666 17.0714C0.898666 15.5093 2.16515 14.2428 3.72721 14.2428C5.28927 14.2428 6.55575 15.5093 6.55575 17.0714C6.55575 18.6335 5.28927 19.9 3.72721 19.9C2.16515 19.9 0.898666 18.6335 0.898666 17.0714ZM10.3274 19.9H14.0985C14.0985 12.6214 8.17698 6.69975 0.898438 6.69975V10.4717C6.0973 10.4717 10.3274 14.7011 10.3274 19.9Z" fill="white"/>
</svg>
