<svg width="20" height="17" viewBox="0 0 20 17" fill="none" xmlns="http://www.w3.org/2000/svg">
<path d="M19.9016 2.25329C19.174 2.5846 18.3907 2.80866 17.5691 2.90876C18.4082 2.39392 19.052 1.57756 19.3553 0.60508C18.5697 1.08179 17.7016 1.42859 16.7741 1.61451C16.035 0.805297 14.9786 0.299988 13.8094 0.299988C11.5676 0.299988 9.74879 2.1651 9.74879 4.46521C9.74879 4.79175 9.78365 5.10876 9.85338 5.41386C6.47726 5.23986 3.48466 3.5833 1.4799 1.06033C1.13009 1.67767 0.930194 2.39392 0.930194 3.15665C0.930194 4.60107 1.64726 5.87626 2.73738 6.6235C2.07261 6.60324 1.44504 6.41375 0.896491 6.10389V6.15513C0.896491 8.17399 2.29691 9.85795 4.1564 10.2393C3.81588 10.337 3.45677 10.3859 3.08603 10.3859C2.82454 10.3859 2.56886 10.3609 2.32132 10.312C2.83849 11.9662 4.3377 13.1711 6.11583 13.2032C4.72586 14.3211 2.9733 14.9873 1.07082 14.9873C0.743084 14.9873 0.418836 14.9682 0.101562 14.9301C1.89945 16.11 4.03553 16.8 6.3285 16.8C13.8013 16.8 17.8863 10.4538 17.8863 4.94907C17.8863 4.76792 17.8829 4.58677 17.8759 4.4092C18.6697 3.82166 19.3588 3.08872 19.9016 2.25329Z" fill="white"/>
</svg>
