<svg width="21" height="15" viewBox="0 0 21 15" fill="none" xmlns="http://www.w3.org/2000/svg">
<path fill-rule="evenodd" clip-rule="evenodd" d="M19.5161 1.46676C20.1095 2.08369 20.3032 3.48466 20.3032 3.48466C20.3032 3.48466 20.5012 5.13023 20.5012 6.77518V8.31782C20.5012 9.9634 20.3032 11.6083 20.3032 11.6083C20.3032 11.6083 20.1095 13.0093 19.5161 13.6262C18.8377 14.3561 18.0855 14.4315 17.6603 14.4741C17.6135 14.4788 17.5707 14.4831 17.5324 14.4878C14.7616 14.6936 10.6012 14.7 10.6012 14.7C10.6012 14.7 5.45317 14.6517 3.86917 14.4954C3.79412 14.481 3.70315 14.4698 3.60012 14.4571C3.09837 14.3953 2.31086 14.2983 1.6856 13.6262C1.09222 13.0093 0.899172 11.6083 0.899172 11.6083C0.899172 11.6083 0.701172 9.9634 0.701172 8.31782V6.77518C0.701172 5.13023 0.899172 3.48466 0.899172 3.48466C0.899172 3.48466 1.09222 2.08369 1.6856 1.46676C2.36552 0.735917 3.11847 0.661326 3.54369 0.619202C3.5898 0.614634 3.63205 0.610449 3.66993 0.60585C6.4407 0.399994 10.5968 0.399994 10.5968 0.399994H10.6055C10.6055 0.399994 14.7616 0.399994 17.5324 0.60585C17.5703 0.610456 17.6126 0.614647 17.6587 0.619222C18.0836 0.661351 18.8369 0.736035 19.5161 1.46676ZM8.55586 4.47454L8.55648 10.187L13.9056 7.34064L8.55586 4.47454Z" fill="white"/>
</svg>
